<svg width="37" height="37" viewBox="0 0 37 37" fill="none" xmlns="http://www.w3.org/2000/svg">
<rect width="37" height="37" fill="#F5F5F5"/>
<g clip-path="url(#clip0_0_1)">
<rect x="-331" y="-79" width="414" height="951" rx="30" fill="#F8F8F8"/>
<rect width="37" height="37" rx="10" fill="#FF6E4E"/>
<path d="M19.0009 9C15.1407 9 12 12.1397 12 15.9991C12 17.8634 12.7253 19.6169 14.0423 20.9397L18.6506 26.6387C18.7661 26.7817 18.9403 26.865 19.125 26.865C19.1269 26.865 19.1297 26.865 19.1316 26.865C19.3181 26.8631 19.4933 26.776 19.6069 26.6283L24.2493 20.6206C25.3779 19.3405 26 17.7005 26 15.9991C26.0009 12.1397 22.8612 9 19.0009 9ZM23.3242 19.8271C23.3148 19.8375 23.3062 19.848 23.2977 19.8593L19.1146 25.2724L14.9712 20.1481C14.9579 20.1311 14.9428 20.115 14.9267 20.0989C13.8265 19.0043 13.2195 17.5481 13.2195 16C13.2195 12.8129 15.8129 10.2205 19 10.2205C22.1871 10.2205 24.7805 12.8129 24.7805 16C24.7814 17.4089 24.2635 18.7686 23.3242 19.8271Z" fill="white"/>
<path d="M19.0009 13.453C17.789 13.453 16.8024 14.4396 16.8024 15.6516C16.8024 16.8635 17.789 17.8492 19.0009 17.8492C20.2129 17.8492 21.1986 16.8635 21.1986 15.6516C21.1995 14.4396 20.2129 13.453 19.0009 13.453ZM19.0009 16.6297C18.4612 16.6297 18.0228 16.1903 18.0228 15.6516C18.0228 15.1119 18.4622 14.6725 19.0009 14.6725C19.5406 14.6725 19.979 15.1119 19.979 15.6516C19.979 16.1913 19.5406 16.6297 19.0009 16.6297Z" fill="white"/>
</g>
<defs>
<clipPath id="clip0_0_1">
<rect x="-331" y="-79" width="414" height="951" rx="30" fill="white"/>
</clipPath>
</defs>
</svg>
